<?xml version="1.0" encoding="utf-8"?>
<!-- Generator: Adobe Illustrator 16.0.0, SVG Export Plug-In . SVG Version: 6.00 Build 0)  -->
<!DOCTYPE svg PUBLIC "-//W3C//DTD SVG 1.1//EN" "http://www.w3.org/Graphics/SVG/1.1/DTD/svg11.dtd">
<svg version="1.1" id="N117Box" xmlns="http://www.w3.org/2000/svg" xmlns:xlink="http://www.w3.org/1999/xlink" x="0px" y="0px"
	 width="2097.396px" height="1990.371px" viewBox="0 0 2097.396 1990.371" enable-background="new 0 0 2097.396 1990.371"
	 xml:space="preserve">
<rect x="0" y="1406.004" fill="#2F7FB8" stroke="#D9D9D9" stroke-miterlimit="10" width="535.557" height="583.237"/>
<image overflow="visible" enable-background="new    " width="18" height="18" id="UB11ST30" xlink:href="images/workStation_state.png"  transform="matrix(2.649947e-008 2.2222 -2.2222 2.649947e-008 466.2332 1520.6338)">
</image>
<image overflow="visible" enable-background="new    " width="18" height="18" id="UB11ST10" xlink:href="images/workStation_state.png"  transform="matrix(-9.713544e-008 -2.2222 2.2222 -9.713544e-008 227.3777 1559.7568)">
</image>
<image overflow="visible" enable-background="new    " width="18" height="18" id="UB11ST20" xlink:href="images/workStation_state.png"  transform="matrix(-9.713544e-008 -2.2222 2.2222 -9.713544e-008 35.2332 1555.999)">
</image>
<g>
	<rect id="UB11ST10R02" x="313.519" y="1562.225" fill="none" width="89.938" height="94.104"/>
	
		<image overflow="visible" enable-background="new    " width="138" height="183" xlink:href="images/Robert_right.png"  transform="matrix(-0.6518 0 0 0.5142 403.5139 1561.3271)">
	</image>
</g>
<g>
	<rect id="UB11ST10R01" x="129.655" y="1562.67" fill="none" width="89.948" height="94.105"/>
	
		<image overflow="visible" enable-background="new    " width="138" height="183" xlink:href="images/Robert_right.png"  transform="matrix(0.6518 0 0 0.5142 129.6077 1561.7744)">
	</image>
</g>
<g>
	
		<text id="UB11_Model" transform="matrix(0.8397 0 -0.3442 0.9389 138.5154 1940.959)" fill="#F2E966" font-family="'MicrosoftYaHei-Bold'" font-size="35">xxxxxxxxxxxx</text>
	
		<text transform="matrix(0.8397 0 -0.3442 0.9389 19.0315 1942.5234)" fill="#F2E966" font-family="'MicrosoftYaHei-Bold'" font-size="35">Model: </text>
	
		<text id="UB11_VIN" transform="matrix(0.8397 0 -0.3442 0.9389 90.4646 1880.084)" fill="#F2E966" font-family="'MicrosoftYaHei-Bold'" font-size="35">-----------------</text>
	
		<text transform="matrix(0.7866 0 -0.3224 0.9466 19.7927 1880.8506)" fill="#F2E966" font-family="'MicrosoftYaHei-Bold'" font-size="37.3633">VIN: </text>
</g>
<rect x="0" y="754.408" fill="#2F7FB8" stroke="#D9D9D9" stroke-miterlimit="10" width="535.557" height="641.813"/>
<text transform="matrix(0.9319 0 -0.3562 0.9344 17.1731 800.3154)" fill="#00DEFF" font-family="'MicrosoftYaHei-Bold'" font-size="40">滚边岛</text>
<g>
	<rect id="R0110030R02" x="380.225" y="968.818" fill="none" width="89.996" height="94.979"/>
	
		<image overflow="visible" enable-background="new    " width="140" height="184" xlink:href="images/Robert_left.png"  transform="matrix(0.6428 0 0 0.5162 380.2307 968.8462)">
	</image>
</g>
<g>
	<rect id="R0110030R01" x="26.385" y="970.634" fill="none" width="89.97" height="94.127"/>
	
		<image overflow="visible" enable-background="new    " width="138" height="183" xlink:href="images/Robert_right.png"  transform="matrix(0.6519 0 0 0.5143 26.3503 969.7632)">
	</image>
</g>
<image overflow="visible" enable-background="new    " width="18" height="18" id="RO11020" xlink:href="images/workStation_state.png"  transform="matrix(2.2222 0 0 2.2222 280.3171 1108.5)">
</image>
<image overflow="visible" enable-background="new    " width="18" height="18" id="RO11030" xlink:href="images/workStation_state.png"  transform="matrix(2.2222 0 0 2.2222 278.8757 826.7813)">
</image>
<image overflow="visible" enable-background="new    " width="18" height="18" id="RO11010" xlink:href="images/workStation_state.png"  transform="matrix(2.2222 0 0 2.2222 14.7742 1108.5)">
</image>
<image overflow="visible" enable-background="new    " width="18" height="18" id="RO11040" xlink:href="images/workStation_state.png"  transform="matrix(2.2222 0 0 2.2222 18.4031 826.7813)">
</image>
<g>
	
		<text id="RO11_Model" transform="matrix(0.8397 0 -0.3442 0.9389 129.5779 1348.4863)" fill="#F2E966" font-family="'MicrosoftYaHei-Bold'" font-size="35">xxxxxxxxxxxx</text>
	
		<text transform="matrix(0.8397 0 -0.3442 0.9389 13.0901 1350.0488)" fill="#F2E966" font-family="'MicrosoftYaHei-Bold'" font-size="35">Model: </text>
	
		<text id="RO11_VIN" transform="matrix(0.8397 0 -0.3442 0.9389 84.5242 1287.6113)" fill="#F2E966" font-family="'MicrosoftYaHei-Bold'" font-size="35">-----------------</text>
	
		<text transform="matrix(0.7866 0 -0.3224 0.9466 13.8494 1288.377)" fill="#F2E966" font-family="'MicrosoftYaHei-Bold'" font-size="37.3633">VIN: </text>
</g>
<rect x="1.402" fill="#2F7FB8" stroke="#D9D9D9" stroke-miterlimit="10" width="534.151" height="743.904"/>
<image overflow="visible" enable-background="new    " width="18" height="18" id="UB111020" xlink:href="images/workStation_state.png"  transform="matrix(2.2222 0 0 2.2222 109.0046 382.2695)">
</image>
<text transform="matrix(0.7855 0 -0.2942 0.9557 159.7854 220.249)" fill="#00DEFF" font-family="'MicrosoftYaHei-Bold'" font-size="35.994">UB111010</text>
<g>
	
		<text id="HW1A_UB11_Model" transform="matrix(0.8397 0 -0.3442 0.9389 134.8884 678.0605)" fill="#F2E966" font-family="'MicrosoftYaHei-Bold'" font-size="36">xxxxxxxxxxxx</text>
	
		<text transform="matrix(0.8397 0 -0.3442 0.9389 18.4026 679.625)" fill="#F2E966" font-family="'MicrosoftYaHei-Bold'" font-size="36">Model: </text>
	
		<text id="HW1A_UB11_VIN" transform="matrix(0.8397 0 -0.3442 0.9389 89.8372 617.1865)" fill="#F2E966" font-family="'MicrosoftYaHei-Bold'" font-size="36">-----------------</text>
	
		<text transform="matrix(0.7866 0 -0.3224 0.9466 19.1672 617.9531)" fill="#F2E966" font-family="'MicrosoftYaHei-Bold'" font-size="36">VIN: </text>
</g>
<rect x="548.854" y="1408.642" fill="#2F7FB8" stroke="#D9D9D9" stroke-miterlimit="10" width="866.702" height="580.604"/>
<g>
	
		<text id="MB21_Model" transform="matrix(0.8397 0 -0.3266 0.9452 686.4475 1937.7256)" fill="#F2E966" font-family="'MicrosoftYaHei-Bold'" font-size="35.006">xxxxxxxxxxxx</text>
	
		<text transform="matrix(0.7965 0 -0.3266 0.9452 577.0237 1937.7256)" fill="#F2E966" font-family="'MicrosoftYaHei-Bold'" font-size="33.3322">Model：</text>
	
		<text id="MB21_VIN" transform="matrix(0.7965 0 -0.3266 0.9452 643.3572 1884.9629)" fill="#F2E966" font-family="'MicrosoftYaHei-Bold'" font-size="33.3322">-----------------</text>
	
		<text transform="matrix(0.7965 0 -0.3266 0.9452 577.0793 1884.9629)" fill="#F2E966" font-family="'MicrosoftYaHei-Bold'" font-size="33.3322">VIN: </text>
</g>
<text transform="matrix(0.7798 0 -0.298 0.9546 567.6042 1460.2588)" fill="#00DEFF" font-family="'MicrosoftYaHei-Bold'" font-size="41.8384">主焊岛</text>
<image overflow="visible" enable-background="new    " width="18" height="18" id="MB210040" xlink:href="images/workStation_state.png"  transform="matrix(2.2222 0 0 2.2222 1086.7039 1822.9219)">
</image>
<image overflow="visible" enable-background="new    " width="18" height="18" id="MB210010" xlink:href="images/workStation_state.png"  transform="matrix(-2.2222 0 0 2.2222 865.0691 1589.2734)">
</image>
<g>
	<rect id="MB210010R02" x="716.71" y="1460.371" fill="none" width="89.99" height="94.983"/>
	
		<image overflow="visible" enable-background="new    " width="140" height="184" xlink:href="images/Robert_left.png"  transform="matrix(0.6428 0 0 0.5161 716.7014 1460.3584)">
	</image>
</g>
<g>
	<rect id="MB210010R06" x="974.427" y="1454.774" fill="none" width="89.983" height="94.989"/>
	
		<image overflow="visible" enable-background="new    " width="138" height="183" xlink:href="images/Robert_right.png"  transform="matrix(0.6521 0 0 0.5143 974.4153 1454.7715)">
	</image>
</g>
<g>
	<rect id="MB210010R08" x="1094.522" y="1454.771" fill="none" width="89.979" height="94.99"/>
	
		<image overflow="visible" enable-background="new    " width="138" height="183" xlink:href="images/Robert_right.png"  transform="matrix(0.6521 0 0 0.5143 1094.5066 1454.7676)">
	</image>
</g>
<g>
	<rect id="MB21FB15R04" x="841.756" y="1454.166" fill="none" width="89.983" height="94.99"/>
	
		<image overflow="visible" enable-background="new    " width="138" height="183" xlink:href="images/Robert_right.png"  transform="matrix(0.6521 0 0 0.5143 841.7415 1454.1621)">
	</image>
</g>
<g>
	<rect id="MB210010R01" x="719.076" y="1706.536" fill="none" width="89.992" height="94.986"/>
	
		<image overflow="visible" enable-background="new    " width="140" height="184" xlink:href="images/Robert_left.png"  transform="matrix(0.6428 0 0 0.5161 719.0686 1706.5215)">
	</image>
</g>
<g>
	<rect id="MB210010R05" x="974.403" y="1704.566" fill="none" width="89.979" height="94.986"/>
	
		<image overflow="visible" enable-background="new    " width="138" height="183" xlink:href="images/Robert_right.png"  transform="matrix(0.6521 0 0 0.5143 974.386 1704.5566)">
	</image>
</g>
<g>
	<rect id="MB210010R07" x="1094.526" y="1703.941" fill="none" width="89.982" height="94.986"/>
	
		<image overflow="visible" enable-background="new    " width="138" height="183" xlink:href="images/Robert_right.png"  transform="matrix(0.6521 0 0 0.5143 1094.5125 1703.9316)">
	</image>
</g>
<g>
	<rect id="MB21FB15R03" x="841.746" y="1706.543" fill="none" width="89.985" height="94.989"/>
	
		<image overflow="visible" enable-background="new    " width="138" height="183" xlink:href="images/Robert_right.png"  transform="matrix(0.6521 0 0 0.5143 841.7336 1706.5313)">
	</image>
</g>
<image overflow="visible" enable-background="new    " width="18" height="18" id="MB210050" xlink:href="images/workStation_state.png"  transform="matrix(-9.713544e-008 -2.2222 2.2222 -9.713544e-008 1238.0925 1501.6826)">
</image>
<text transform="matrix(-0.0078 0.8397 -0.9204 -0.3909 1269.49 1518.877)" fill="#00DEFF" font-family="'MicrosoftYaHei-Bold'" font-size="36">MB210050</text>
<rect x="548.854" y="754.408" fill="#2F7FB8" stroke="#D9D9D9" stroke-miterlimit="10" width="866.702" height="641.813"/>
<g>
	
		<text transform="matrix(0.8397 0 -0.3155 0.9489 675.2356 1350.0508)" fill="#F2E966" font-family="'MicrosoftYaHei-Bold'" font-size="35">xxxxxxxxxxxx</text>
	
		<text transform="matrix(0.7695 0 -0.3155 0.9489 571.7478 1350.0518)" fill="#F2E966" font-family="'MicrosoftYaHei-Bold'" font-size="34.0959">Model: </text>
	
		<text transform="matrix(0.7695 0 -0.3155 0.9489 637.3171 1295.8613)" fill="#F2E966" font-family="'MicrosoftYaHei-Bold'" font-size="34.0959">-----------------</text>
	
		<text transform="matrix(0.7695 0 -0.3155 0.9489 571.8079 1295.8613)" fill="#F2E966" font-family="'MicrosoftYaHei-Bold'" font-size="34.0959">VIN: </text>
</g>
<image overflow="visible" enable-background="new    " width="18" height="18" id="LW111035" xlink:href="images/workStation_state.png"  transform="matrix(2.649947e-008 2.2222 2.2222 -2.649947e-008 1238.0925 1099.2266)">
</image>
<image overflow="visible" enable-background="new    " width="18" height="18" id="LW111030" xlink:href="images/workStation_state.png"  transform="matrix(2.649947e-008 2.2222 2.2222 -2.649947e-008 1088.6316 1008.3203)">
</image>
<image overflow="visible" enable-background="new    " width="18" height="18" id="LW111025" xlink:href="images/workStation_state.png"  transform="matrix(2.2222 0 0 2.2222 1068.2 826.7813)">
</image>
<text transform="matrix(0.7538 0 -0.2513 0.9679 1131.0281 890.417)" fill="#00DEFF" font-family="'MicrosoftYaHei-Bold'" font-size="36">LW111025</text>
<image overflow="visible" enable-background="new    " width="18" height="18" id="LW111010" xlink:href="images/workStation_state.png"  transform="matrix(2.649947e-008 2.2222 2.2222 -2.649947e-008 832.0925 1015.2852)">
</image>
<g>
	<rect id="LW111010R03" x="948.177" y="1132.975" fill="none" width="89.978" height="94.99"/>
	
		<image overflow="visible" enable-background="new    " width="140" height="184" xlink:href="images/Robert_left.png"  transform="matrix(0.6426 0 0 0.5163 948.1536 1132.9639)">
	</image>
</g>
<g>
	<rect id="LW11FB15R01" x="948.162" y="1010.547" fill="none" width="89.979" height="94.987"/>
	
		<image overflow="visible" enable-background="new    " width="140" height="184" xlink:href="images/Robert_left.png"  transform="matrix(0.6427 0 0 0.5163 948.1394 1010.5342)">
	</image>
</g>
<g>
	<rect id="LW111010R05" x="840.389" y="863.403" fill="none" width="89.939" height="94.104"/>
	
		<image overflow="visible" enable-background="new    " width="138" height="183" xlink:href="images/Robert_right.png"  transform="matrix(0.6519 0 0 0.5143 840.3289 862.5093)">
	</image>
</g>
<g>
	<rect id="LW11FB15R04" x="697.835" y="1133.414" fill="none" width="89.942" height="94.104"/>
	
		<image overflow="visible" enable-background="new    " width="138" height="183" xlink:href="images/Robert_right.png"  transform="matrix(0.6518 0 0 0.5143 697.7756 1132.5254)">
	</image>
</g>
<g>
	<rect id="LW11FB15R02" x="697.865" y="1009.177" fill="none" width="89.942" height="94.116"/>
	
		<image overflow="visible" enable-background="new    " width="138" height="183" xlink:href="images/Robert_right.png"  transform="matrix(0.6518 0 0 0.5144 697.8049 1008.2871)">
	</image>
</g>
<text transform="matrix(0.7529 0 -0.2878 0.9577 562.0691 803.5723)" fill="#00DEFF" font-family="'MicrosoftYaHei-Bold'" font-size="40">激光岛</text>
<text transform="matrix(0.7471 0 -0.2491 0.9685 636.4851 901.1465)" fill="#00DEFF" font-family="'MicrosoftYaHei-Bold'" font-size="36">LW111015</text>
<image overflow="visible" enable-background="new    " width="18" height="18" id="LW111015" xlink:href="images/workStation_state.png"  transform="matrix(-2.2222 0 0 2.2222 612.2019 834.8633)">
</image>
<rect x="548.854" y="325.547" fill="#2F7FB8" stroke="#D9D9D9" stroke-miterlimit="10" width="866.702" height="418.356"/>
<g>
	
		<text id="HW1A_WELD_Model" transform="matrix(0.8397 0 -0.3266 0.9452 675.1682 706.0439)" fill="#F2E966" font-family="'MicrosoftYaHei-Bold'" font-size="36.0052">xxxxxxxxxxxx</text>
	
		<text transform="matrix(0.7965 0 -0.3266 0.9452 567.5398 706.0439)" fill="#F2E966" font-family="'MicrosoftYaHei-Bold'" font-size="36.0052">Model: </text>
	
		<text id="HW1A_WELD_VIN" transform="matrix(0.7965 0 -0.3266 0.9452 633.8767 653.2861)" fill="#F2E966" font-family="'MicrosoftYaHei-Bold'" font-size="36.0052">-----------------</text>
	
		<text transform="matrix(0.7965 0 -0.3266 0.9452 567.5994 653.2861)" fill="#F2E966" font-family="'MicrosoftYaHei-Bold'" font-size="36.0052">VIN: </text>
</g>
<g>
	<rect id="HW1AWE30R02" x="737.35" y="379.202" fill="none" width="89.979" height="95"/>
	
		<image overflow="visible" enable-background="new    " width="140" height="184" xlink:href="images/Robert_left.png"  transform="matrix(0.6428 0 0 0.5162 737.3577 379.2075)">
	</image>
</g>
<g>
	<rect id="HW1AWE30R01" x="1140.619" y="379.202" fill="none" width="89.985" height="95"/>
	
		<image overflow="visible" enable-background="new    " width="140" height="184" xlink:href="images/Robert_left.png"  transform="matrix(-0.6428 0 0 0.5162 1230.6042 379.2075)">
	</image>
</g>
<text transform="matrix(0.7471 0 -0.2491 0.9685 625.4675 557.3672)" fill="#00DEFF" font-family="'MicrosoftYaHei-Bold'" font-size="36.4276">WELD1025</text>
<image overflow="visible" enable-background="new    " width="18" height="18" id="HW1AWE25" xlink:href="images/workStation_state.png"  transform="matrix(-2.2222 0 0 2.2222 612.1355 505.2344)">
</image>
<text transform="matrix(0.7798 0 -0.298 0.9546 548.8528 371.9609)" fill="#00DEFF" font-family="'MicrosoftYaHei-Bold'" font-size="41.8394">焊接岛上下件</text>
<text transform="matrix(0.7471 0 -0.2491 0.9685 1201.1882 557.3652)" fill="#00DEFF" font-family="'MicrosoftYaHei-Bold'" font-size="36.4276">WELD1035</text>
<image overflow="visible" enable-background="new    " width="18" height="18" id="HW1AWE35" xlink:href="images/workStation_state.png"  transform="matrix(-2.2077 0 0 2.274 1187.2312 504.7813)">
</image>
<text transform="matrix(0.7538 0 -0.2513 0.9679 918.5789 436.8115)" fill="#00DEFF" font-family="'MicrosoftYaHei-Bold'" font-size="36">WELD1015</text>
<image overflow="visible" enable-background="new    " width="18" height="18" id="HW1AWE15" xlink:href="images/workStation_state.png"  transform="matrix(-2.2222 0 0 2.2222 902.8347 382.2695)">
</image>
<text transform="matrix(0.7471 0 -0.2491 0.9685 910.384 557.3682)" fill="#00DEFF" font-family="'MicrosoftYaHei-Bold'" font-size="36.4276">WELD1030</text>
<image overflow="visible" enable-background="new    " width="18" height="18" id="HW1AWE30" xlink:href="images/workStation_state.png"  transform="matrix(-2.2077 0 0 2.274 902.7156 504.7813)">
</image>
<rect x="548.854" fill="#2F7FB8" stroke="#D9D9D9" stroke-miterlimit="10" width="866.702" height="325.549"/>
<image overflow="visible" enable-background="new    " width="18" height="18" id="WELD1010" xlink:href="images/workStation_state.png"  transform="matrix(-2.2222 0 0 2.2222 1068.2019 105.6563)">
</image>
<text transform="matrix(0.7993 0 -0.2665 0.9638 1068.1863 159.2817)" fill="#00DEFF" font-family="'MicrosoftYaHei-Bold'" font-size="35.9952">WELD1010</text>
<g>
	<rect id="WELD1010R02" x="1191.338" y="201.459" fill="none" width="84.174" height="95.453"/>
	
		<image overflow="visible" enable-background="new    " width="140" height="184" xlink:href="images/Robert_left.png"  transform="matrix(0.6012 0 0 0.5188 1191.3484 201.4619)">
	</image>
</g>
<g>
	<rect id="WELD1010R04" x="1086.51" y="201.612" fill="none" width="89.981" height="94.995"/>
	
		<image overflow="visible" enable-background="new    " width="140" height="184" xlink:href="images/Robert_left.png"  transform="matrix(0.6428 0 0 0.5162 1086.5222 201.606)">
	</image>
</g>
<g>
	<rect id="WELD1010R01" x="1233.355" y="9.968" fill="none" width="89.948" height="94.125"/>
	
		<image overflow="visible" enable-background="new    " width="138" height="183" xlink:href="images/Robert_right.png"  transform="matrix(0.6518 0 0 0.5143 1233.3074 9.0947)">
	</image>
</g>
<g>
	<rect id="WELD1010R03" x="1125.524" y="11.534" fill="none" width="89.952" height="94.126"/>
	
		<image overflow="visible" enable-background="new    " width="138" height="183" xlink:href="images/Robert_right.png"  transform="matrix(0.6518 0 0 0.5143 1125.4792 10.6631)">
	</image>
</g>
<g>
	<rect id="WELD1010R05" x="1018.781" y="9.526" fill="none" width="89.946" height="94.128"/>
	
		<image overflow="visible" enable-background="new    " width="138" height="183" xlink:href="images/Robert_right.png"  transform="matrix(0.6518 0 0 0.5143 1018.7268 8.6553)">
	</image>
</g>
<image overflow="visible" enable-background="new    " width="18" height="18" id="WELD1050" xlink:href="images/workStation_state.png"  transform="matrix(2.2222 0 0 2.2222 633.3601 105.6602)">
</image>
<g>
	
		<text id="WELD_Model" transform="matrix(0.6989 0 -0.2865 0.9581 690.8005 301.0703)" fill="#F2E966" font-family="'MicrosoftYaHei-Bold'" font-size="36">xxxxxxxxxxxx</text>
	
		<text transform="matrix(0.6989 0 -0.2865 0.9581 572.136 302.8281)" fill="#F2E966" font-family="'MicrosoftYaHei-Bold'" font-size="36">Model: </text>
	
		<text id="WELD_VIN" transform="matrix(0.6989 0 -0.2865 0.9581 636.4895 244.835)" fill="#F2E966" font-family="'MicrosoftYaHei-Bold'" font-size="36">-----------------</text>
	
		<text transform="matrix(0.6531 0 -0.2677 0.9635 571.6917 245.5898)" fill="#F2E966" font-family="'MicrosoftYaHei-Bold'" font-size="36">VIN: </text>
</g>
<rect x="1427.346" y="1408.767" fill="#2F7FB8" stroke="#D9D9D9" stroke-miterlimit="10" width="669.053" height="580.604"/>
<image overflow="visible" enable-background="new    " width="18" height="18" id="MB221010" xlink:href="images/workStation_state.png"  transform="matrix(2.2222 0 0 2.2222 1672.9167 1619.6445)">
</image>
<g>
	<rect id="MB221010R02" x="1832.346" y="1732.677" fill="none" width="89.988" height="94.976"/>
	
		<image overflow="visible" enable-background="new    " width="140" height="184" xlink:href="images/Robert_left.png"  transform="matrix(0.6428 0 0 0.5161 1832.3367 1732.6533)">
	</image>
</g>
<g>
	<rect id="MB221010R04" x="1659.391" y="1734.203" fill="none" width="89.971" height="95"/>
	
		<image overflow="visible" enable-background="new    " width="138" height="183" xlink:href="images/Robert_right.png"  transform="matrix(0.652 0 0 0.5143 1659.3582 1734.2129)">
	</image>
</g>
<g>
	<rect id="MB221010R01" x="1832.327" y="1481.681" fill="none" width="89.991" height="94.989"/>
	
		<image overflow="visible" enable-background="new    " width="140" height="184" xlink:href="images/Robert_left.png"  transform="matrix(0.6428 0 0 0.5162 1832.3347 1481.6699)">
	</image>
</g>
<g>
	<rect id="MB221010R03" x="1659.35" y="1482.146" fill="none" width="89.984" height="94.976"/>
	
		<image overflow="visible" enable-background="new    " width="138" height="183" xlink:href="images/Robert_right.png"  transform="matrix(0.6521 0 0 0.5142 1659.364 1482.1182)">
	</image>
</g>
<text transform="matrix(0.7798 0 -0.298 0.9546 1457.0066 1460.2578)" fill="#00DEFF" font-family="'MicrosoftYaHei-Bold'" font-size="41.8384">测量岛</text>
<g>
	
		<text id="MB22_Model" transform="matrix(0.8029 0 -0.3266 0.9452 1554.1121 1954.915)" fill="#F2E966" font-family="'MicrosoftYaHei-Bold'" font-size="33.55">xxxxxxxxxxxx</text>
	
		<text transform="matrix(0.7965 0 -0.3266 0.9452 1447.9041 1954.915)" fill="#F2E966" font-family="'MicrosoftYaHei-Bold'" font-size="33.3322">Model:</text>
	
		<text id="MB22_VIN" transform="matrix(0.7965 0 -0.3266 0.9452 1514.241 1902.1543)" fill="#F2E966" font-family="'MicrosoftYaHei-Bold'" font-size="33.3322">-----------------</text>
	
		<text transform="matrix(0.7965 0 -0.3266 0.9452 1447.9617 1902.1543)" fill="#F2E966" font-family="'MicrosoftYaHei-Bold'" font-size="33.3322">VIN: </text>
</g>
<rect x="1429.738" y="1119.228" fill="#2F7FB8" stroke="#D9D9D9" stroke-miterlimit="10" width="666.658" height="276.998"/>
<image overflow="visible" enable-background="new    " width="18" height="18" id="MB231010" xlink:href="images/workStation_state.png"  transform="matrix(2.2222 0 0 2.2222 1664.7625 1221.2852)">
</image>
<text transform="matrix(0.7798 0 -0.298 0.9546 1447.9753 1168.3271)" fill="#00DEFF" font-family="'MicrosoftYaHei-Bold'" font-size="40.0052">调整线</text>
<rect x="1429.738" y="754.408" fill="#2F7FB8" stroke="#D9D9D9" stroke-miterlimit="10" width="666.658" height="351.125"/>
<rect x="1427.346" fill="#2F7FB8" stroke="#D9D9D9" stroke-miterlimit="10" width="669.053" height="743.904"/>
<g>
	
		<text id="LTK_Model5" transform="matrix(0.8029 0 -0.3266 0.9452 1595.0632 696.0859)" fill="#F2E966" font-family="'MicrosoftYaHei-Bold'" font-size="33.55">xxxxxxxxxxxx</text>
	
		<text transform="matrix(0.7965 0 -0.3266 0.9452 1488.8552 696.0859)" fill="#F2E966" font-family="'MicrosoftYaHei-Bold'" font-size="33.3322">Model:</text>
	
		<text id="LTK_VIN5" transform="matrix(0.7965 0 -0.3266 0.9452 1555.1892 643.3262)" fill="#F2E966" font-family="'MicrosoftYaHei-Bold'" font-size="33.3322">-----------------</text>
	
		<text transform="matrix(0.7965 0 -0.3266 0.9452 1488.9138 643.3262)" fill="#F2E966" font-family="'MicrosoftYaHei-Bold'" font-size="33.3322">VIN: </text>
</g>
<g>
	
		<text id="LTK_Model4" transform="matrix(0.8029 0 -0.3266 0.9452 1595.0652 557.5557)" fill="#F2E966" font-family="'MicrosoftYaHei-Bold'" font-size="33.55">xxxxxxxxxxxx</text>
	
		<text transform="matrix(0.7965 0 -0.3266 0.9452 1489.0291 557.5557)" fill="#F2E966" font-family="'MicrosoftYaHei-Bold'" font-size="33.3322">Model:</text>
	
		<text id="LTK_VIN4" transform="matrix(0.7965 0 -0.3266 0.9452 1555.3708 504.793)" fill="#F2E966" font-family="'MicrosoftYaHei-Bold'" font-size="33.3322">-----------------</text>
	
		<text transform="matrix(0.7965 0 -0.3266 0.9452 1489.0945 504.793)" fill="#F2E966" font-family="'MicrosoftYaHei-Bold'" font-size="33.3322">VIN: </text>
</g>
<g>
	
		<text id="LTK_Model3" transform="matrix(0.8029 0 -0.3266 0.9452 1595.0642 439.7744)" fill="#F2E966" font-family="'MicrosoftYaHei-Bold'" font-size="33.55">xxxxxxxxxxxx</text>
	
		<text transform="matrix(0.7965 0 -0.3266 0.9452 1488.9128 439.7744)" fill="#F2E966" font-family="'MicrosoftYaHei-Bold'" font-size="33.3322">Model:</text>
	
		<text id="LTK_VIN3" transform="matrix(0.7965 0 -0.3266 0.9452 1555.2527 387.0098)" fill="#F2E966" font-family="'MicrosoftYaHei-Bold'" font-size="33.3322">-----------------</text>
	
		<text transform="matrix(0.7965 0 -0.3266 0.9452 1488.9763 387.0098)" fill="#F2E966" font-family="'MicrosoftYaHei-Bold'" font-size="33.3322">VIN: </text>
</g>
<g>
	
		<text id="LTK_Model2" transform="matrix(0.8029 0 -0.3266 0.9452 1595.0652 304.1514)" fill="#F2E966" font-family="'MicrosoftYaHei-Bold'" font-size="33.55">xxxxxxxxxxxx</text>
	
		<text transform="matrix(0.7965 0 -0.3266 0.9452 1488.8562 304.1514)" fill="#F2E966" font-family="'MicrosoftYaHei-Bold'" font-size="33.3322">Model:</text>
	
		<text id="LTK_VIN2" transform="matrix(0.7965 0 -0.3266 0.9452 1555.1921 251.3911)" fill="#F2E966" font-family="'MicrosoftYaHei-Bold'" font-size="33.3322">-----------------</text>
	
		<text transform="matrix(0.7965 0 -0.3266 0.9452 1488.9089 251.3911)" fill="#F2E966" font-family="'MicrosoftYaHei-Bold'" font-size="33.3322">VIN: </text>
</g>
<g>
	
		<text id="LTK_Model1" transform="matrix(0.8029 0 -0.3266 0.9452 1595.0652 165.6938)" fill="#F2E966" font-family="'MicrosoftYaHei-Bold'" font-size="33.55">xxxxxxxxxxxx</text>
	
		<text transform="matrix(0.7965 0 -0.3266 0.9452 1488.8601 165.6938)" fill="#F2E966" font-family="'MicrosoftYaHei-Bold'" font-size="33.3322">Model:</text>
	
		<text id="LTK_VIN1" transform="matrix(0.7965 0 -0.3266 0.9452 1555.1912 112.9331)" fill="#F2E966" font-family="'MicrosoftYaHei-Bold'" font-size="33.3322">-----------------</text>
	
		<text transform="matrix(0.7965 0 -0.3266 0.9452 1488.9148 112.9331)" fill="#F2E966" font-family="'MicrosoftYaHei-Bold'" font-size="33.3322">VIN: </text>
</g>
<text transform="matrix(0.7798 0 -0.298 0.9546 1438.2058 46.2368)" fill="#00DEFF" font-family="'MicrosoftYaHei-Bold'" font-size="40.0052">立体库</text>
<text transform="matrix(0.9319 0 -0.3562 0.9344 559.7209 46.1963)" fill="#00DEFF" font-family="'MicrosoftYaHei-Bold'" font-size="40">焊接岛</text>
<text transform="matrix(0.9319 0 -0.3562 0.9344 1441.6882 800.3154)" fill="#00DEFF" font-family="'MicrosoftYaHei-Bold'" font-size="40">AGV</text>
<text transform="matrix(0.9319 0 -0.3562 0.9344 19.6995 54.0757)" fill="#00DEFF" font-family="'MicrosoftYaHei-Bold'" font-size="40">地板岛上件</text>
<text transform="matrix(0.9319 0 -0.3562 0.9344 13.1619 1460.208)" fill="#00DEFF" font-family="'MicrosoftYaHei-Bold'" font-size="40.3829">地板岛</text>
<text transform="matrix(0.7993 0 -0.2665 0.9638 675.1648 159.2817)" fill="#00DEFF" font-family="'MicrosoftYaHei-Bold'" font-size="35.9952">WELD1050</text>
<text transform="matrix(0.7855 0 -0.2942 0.9557 159.7859 439.751)" fill="#00DEFF" font-family="'MicrosoftYaHei-Bold'" font-size="35.994">UB111020</text>
<text transform="matrix(0.7471 0 -0.2491 0.9685 1716.7605 1281.1377)" fill="#00DEFF" font-family="'MicrosoftYaHei-Bold'" font-size="36">MB231010</text>
<text transform="matrix(0.7855 0 -0.2942 0.9557 75.0002 890.9619)" fill="#00DEFF" font-family="'MicrosoftYaHei-Bold'" font-size="35.994">RO110040</text>
<text transform="matrix(0.7855 0 -0.2942 0.9557 343.0212 890.9619)" fill="#00DEFF" font-family="'MicrosoftYaHei-Bold'" font-size="35.994">RO110030</text>
<text transform="matrix(0.7855 0 -0.2942 0.9557 71.3704 1168.3232)" fill="#00DEFF" font-family="'MicrosoftYaHei-Bold'" font-size="35.994">RO110010</text>
<text transform="matrix(0.7855 0 -0.2942 0.9557 332.5471 1168.3232)" fill="#00DEFF" font-family="'MicrosoftYaHei-Bold'" font-size="35.994">RO110020</text>
<text transform="matrix(0 0.7538 -0.9679 -0.2513 1108.6257 1075.5332)" fill="#00DEFF" font-family="'MicrosoftYaHei-Bold'" font-size="36">LW111030</text>
<text transform="matrix(0 0.7538 -0.9679 -0.2513 852.5232 1075.5332)" fill="#00DEFF" font-family="'MicrosoftYaHei-Bold'" font-size="36">LW111010</text>
<text transform="matrix(0 0.7538 -0.9679 -0.2513 1269.4968 1152.0449)" fill="#00DEFF" font-family="'MicrosoftYaHei-Bold'" font-size="36">LW111035</text>
<text transform="matrix(0 0.7538 -0.9679 -0.2513 55.2273 1584.7275)" fill="#00DEFF" font-family="'MicrosoftYaHei-Bold'" font-size="36">UB11ST20</text>
<text transform="matrix(0 0.7538 -0.9679 -0.2513 255.7581 1584.7305)" fill="#00DEFF" font-family="'MicrosoftYaHei-Bold'" font-size="36">UB11ST10</text>
<text transform="matrix(0 0.7538 -0.9679 -0.2513 458.322 1586.5596)" fill="#00DEFF" font-family="'MicrosoftYaHei-Bold'" font-size="36">UB11ST30</text>
<text transform="matrix(0.7855 0 -0.2942 0.9557 1139.5125 1880.8486)" fill="#00DEFF" font-family="'MicrosoftYaHei-Bold'" font-size="35.994">MB210040</text>
<text transform="matrix(0.7855 0 -0.2942 0.9557 878.5085 1648.8604)" fill="#00DEFF" font-family="'MicrosoftYaHei-Bold'" font-size="35.994">MB210010</text>
<text transform="matrix(0.7471 0 -0.2491 0.9685 1729.8552 1676.8486)" fill="#00DEFF" font-family="'MicrosoftYaHei-Bold'" font-size="36">MB221010</text>
<text transform="matrix(0.7471 0 -0.2491 0.9685 1542.8582 869.0488)" fill="#00DEFF" font-family="'MicrosoftYaHei-Bold'" font-size="36">Red1</text>
<rect x="101.504" y="163.697" fill="none" stroke="#00DEFF" stroke-width="4" stroke-miterlimit="10" width="250" height="90"/>
<rect x="101.504" y="377.272" fill="none" stroke="#00DEFF" stroke-width="4" stroke-miterlimit="10" width="250" height="90"/>
<rect x="625.471" y="100.661" fill="none" stroke="#00DEFF" stroke-width="4" stroke-miterlimit="10" width="250" height="90"/>
<rect x="1022.492" y="100.661" fill="none" stroke="#00DEFF" stroke-width="4" stroke-miterlimit="10" width="250" height="90"/>
<rect x="572.865" y="500.237" fill="none" stroke="#00DEFF" stroke-width="4" stroke-miterlimit="10" width="250" height="90"/>
<rect x="857.203" y="377.272" fill="none" stroke="#00DEFF" stroke-width="4" stroke-miterlimit="10" width="250" height="90"/>
<rect x="857.203" y="500.237" fill="none" stroke="#00DEFF" stroke-width="4" stroke-miterlimit="10" width="250" height="90"/>
<rect x="1144.488" y="500.713" fill="none" stroke="#00DEFF" stroke-width="4" stroke-miterlimit="10" width="250" height="90"/>
<rect x="13.517" y="821.784" fill="none" stroke="#00DEFF" stroke-width="4" stroke-miterlimit="10" width="250" height="90"/>
<rect x="278.875" y="821.784" fill="none" stroke="#00DEFF" stroke-width="4" stroke-miterlimit="10" width="250.001" height="90"/>
<rect x="572.865" y="829.866" fill="none" stroke="#00DEFF" stroke-width="4" stroke-miterlimit="10" width="250" height="90"/>
<rect x="1068.199" y="821.784" fill="none" stroke="#00DEFF" stroke-width="4" stroke-miterlimit="10" width="250" height="90"/>
<rect x="827.092" y="1007.975" fill="none" stroke="#00DEFF" stroke-width="4" stroke-miterlimit="10" width="90" height="250"/>
<rect x="1086.028" y="1003.502" fill="none" stroke="#00DEFF" stroke-width="4" stroke-miterlimit="10" width="90" height="250"/>
<rect x="1233.092" y="1092.463" fill="none" stroke="#00DEFF" stroke-width="4" stroke-miterlimit="10" width="90" height="250"/>
<rect x="13.517" y="1103.502" fill="none" stroke="#00DEFF" stroke-width="4" stroke-miterlimit="10" width="250" height="90"/>
<rect x="278.875" y="1103.502" fill="none" stroke="#00DEFF" stroke-width="4" stroke-miterlimit="10" width="250.001" height="90"/>
<rect x="823.141" y="1584.276" fill="none" stroke="#00DEFF" stroke-width="4" stroke-miterlimit="10" width="250" height="90"/>
<rect x="1086.028" y="1819.925" fill="none" stroke="#00DEFF" stroke-width="4" stroke-miterlimit="10" width="250" height="90"/>
<rect x="222.778" y="1514.647" fill="none" stroke="#00DEFF" stroke-width="4" stroke-miterlimit="10" width="90" height="250"/>
<rect x="425.227" y="1514.647" fill="none" stroke="#00DEFF" stroke-width="4" stroke-miterlimit="10" width="90" height="250"/>
<rect x="30.23" y="1514.647" fill="none" stroke="#00DEFF" stroke-width="4" stroke-miterlimit="10" width="90" height="250"/>
<rect x="1233.092" y="1459.276" fill="none" stroke="#00DEFF" stroke-width="4" stroke-miterlimit="10" width="90" height="250"/>
<rect x="1668.762" y="1613.925" fill="none" stroke="#00DEFF" stroke-width="4" stroke-miterlimit="10" width="250" height="90"/>
<rect x="1659.35" y="1216.286" fill="none" stroke="#00DEFF" stroke-width="4" stroke-miterlimit="10" width="250" height="90"/>
<rect x="1488.362" y="828.325" fill="none" stroke="#00DEFF" stroke-width="4" stroke-miterlimit="10" width="160" height="60"/>
<image overflow="visible" enable-background="new    " width="18" height="18" id="AGV_Red1" xlink:href="images/workStation_state.png"  transform="matrix(2.2222 0 0 2.2222 1488.3621 821.4063)">
</image>
<text transform="matrix(0.7471 0 -0.2491 0.9685 1713.864 869.0488)" fill="#00DEFF" font-family="'MicrosoftYaHei-Bold'" font-size="36">Red2</text>
<rect x="1659.364" y="828.325" fill="none" stroke="#00DEFF" stroke-width="4" stroke-miterlimit="10" width="160" height="60"/>
<image overflow="visible" enable-background="new    " width="18" height="18" id="AGV_Red2" xlink:href="images/workStation_state.png"  transform="matrix(2.2222 0 0 2.2222 1659.364 821.4063)">
</image>
<text transform="matrix(0.7471 0 -0.2491 0.9685 1883.8503 869.0488)" fill="#00DEFF" font-family="'MicrosoftYaHei-Bold'" font-size="36">Red3</text>
<rect x="1829.35" y="828.325" fill="none" stroke="#00DEFF" stroke-width="4" stroke-miterlimit="10" width="160" height="60"/>
<image overflow="visible" enable-background="new    " width="18" height="18" id="AGV_Red3" xlink:href="images/workStation_state.png"  transform="matrix(2.2222 0 0 2.2222 1829.3503 821.4063)">
</image>
<text transform="matrix(0.7471 0 -0.2491 0.9685 1542.8591 957.2061)" fill="#00DEFF" font-family="'MicrosoftYaHei-Bold'" font-size="36">Blue1</text>
<rect x="1488.362" y="916.483" fill="none" stroke="#00DEFF" stroke-width="4" stroke-miterlimit="10" width="160" height="60"/>
<image overflow="visible" enable-background="new    " width="18" height="18" id="AGV_Blue1" xlink:href="images/workStation_state.png"  transform="matrix(2.2222 0 0 2.2222 1488.3621 909.5625)">
</image>
<text transform="matrix(0.7471 0 -0.2491 0.9685 1713.865 957.665)" fill="#00DEFF" font-family="'MicrosoftYaHei-Bold'" font-size="36">Blue2</text>
<rect x="1659.364" y="916.942" fill="none" stroke="#00DEFF" stroke-width="4" stroke-miterlimit="10" width="160" height="60"/>
<image overflow="visible" enable-background="new    " width="18" height="18" id="AGV_Blue2" xlink:href="images/workStation_state.png"  transform="matrix(2.2222 0 0 2.2222 1659.364 910.0234)">
</image>
<text transform="matrix(0.7471 0 -0.2491 0.9685 1542.8582 1042.5049)" fill="#00DEFF" font-family="'MicrosoftYaHei-Bold'" font-size="36">Orange</text>
<rect x="1488.362" y="1001.781" fill="none" stroke="#00DEFF" stroke-width="4" stroke-miterlimit="10" width="160" height="60"/>
<image overflow="visible" enable-background="new    " width="18" height="18" id="AGV_Orange" xlink:href="images/workStation_state.png"  transform="matrix(2.2222 0 0 2.2222 1488.3621 994.8594)">
</image>
<text transform="matrix(0.7471 0 -0.2491 0.9685 1713.8601 1044.9629)" fill="#00DEFF" font-family="'MicrosoftYaHei-Bold'" font-size="36">Green</text>
<rect x="1659.364" y="1004.24" fill="none" stroke="#00DEFF" stroke-width="4" stroke-miterlimit="10" width="160" height="60"/>
<image overflow="visible" enable-background="new    " width="18" height="18" id="AGV_Green" xlink:href="images/workStation_state.png"  transform="matrix(2.2222 0 0 2.2222 1659.364 997.3203)">
</image>
</svg>
